<?xml version="1.0" encoding="utf-8"?>
<!-- Generator: Adobe Illustrator 15.0.0, SVG Export Plug-In . SVG Version: 6.00 Build 0)  -->
<!DOCTYPE svg PUBLIC "-//W3C//DTD SVG 1.1//EN" "http://www.w3.org/Graphics/SVG/1.1/DTD/svg11.dtd">
<svg version="1.1" id="Capa_1" xmlns="http://www.w3.org/2000/svg" xmlns:xlink="http://www.w3.org/1999/xlink" x="0px" y="0px"
	 width="256px" height="256px" viewBox="0 0 256 256" enable-background="new 0 0 256 256" xml:space="preserve">
<g>
	<path fill="#FF007E" d="M103,146.553c0,3.562,2.886,6.447,6.447,6.447h37.105c3.562,0,6.447-2.886,6.447-6.447v-37.105
		c0-3.562-2.886-6.447-6.447-6.447h-37.105c-3.562,0-6.447,2.886-6.447,6.447V146.553z"/>
	<path fill="#FFFFFF" d="M123.734,125.117v-7.081h6.233c0.594,0,1.166,0.049,1.717,0.148c0.552,0.099,1.039,0.275,1.463,0.53
		s0.764,0.608,1.018,1.06c0.255,0.452,0.382,1.032,0.382,1.738c0,1.272-0.382,2.19-1.145,2.756
		c-0.764,0.565-1.738,0.848-2.926,0.848H123.734L123.734,125.117z M117.077,112.863v30.273h14.671c1.356,0,2.678-0.17,3.964-0.509
		s2.431-0.862,3.435-1.568c1.004-0.707,1.802-1.618,2.396-2.735c0.594-1.116,0.891-2.438,0.891-3.965
		c0-1.894-0.46-3.512-1.378-4.854c-0.919-1.343-2.312-2.283-4.177-2.82c1.356-0.65,2.382-1.484,3.074-2.501s1.038-2.29,1.038-3.816
		c0-1.413-0.232-2.601-0.699-3.562s-1.123-1.731-1.972-2.311c-0.848-0.58-1.865-0.997-3.053-1.251s-2.502-0.382-3.943-0.382H117.077
		L117.077,112.863z M123.734,137.964v-8.311h7.25c1.441,0,2.601,0.332,3.477,0.997c0.876,0.664,1.314,1.773,1.314,3.328
		c0,0.792-0.134,1.441-0.402,1.95s-0.63,0.912-1.081,1.209c-0.453,0.297-0.976,0.508-1.569,0.636
		c-0.594,0.127-1.216,0.191-1.865,0.191L123.734,137.964L123.734,137.964z"/>
</g>
</svg>
