<?xml version="1.0" encoding="utf-8"?>
<!-- Generator: Adobe Illustrator 15.0.0, SVG Export Plug-In . SVG Version: 6.00 Build 0)  -->
<!DOCTYPE svg PUBLIC "-//W3C//DTD SVG 1.1//EN" "http://www.w3.org/Graphics/SVG/1.1/DTD/svg11.dtd">
<svg version="1.1" id="Capa_1" xmlns="http://www.w3.org/2000/svg" xmlns:xlink="http://www.w3.org/1999/xlink" x="0px" y="0px"
	 width="256px" height="256px" viewBox="0 0 256 256" enable-background="new 0 0 256 256" xml:space="preserve">
<g>
	<path fill="#19255F" d="M0,222.991C0,241.225,14.778,256,33.009,256h189.982C241.225,256,256,241.223,256,222.991V33.009
		C256,14.776,241.223,0,222.991,0H33.009C14.776,0,0,14.778,0,33.009V222.991z"/>
	<path fill="#FFFFFF" d="M106.158,113.238V76.984h31.912c3.039,0,5.97,0.253,8.791,0.76c2.822,0.507,5.318,1.411,7.49,2.714
		c2.17,1.303,3.906,3.111,5.209,5.427c1.303,2.315,1.955,5.282,1.955,8.9c0,6.513-1.955,11.216-5.861,14.111
		c-3.907,2.895-8.9,4.342-14.979,4.342H106.158L106.158,113.238z M72.075,50.5v155h75.112c6.946,0,13.713-0.868,20.297-2.605
		c6.586-1.735,12.447-4.414,17.584-8.03c5.14-3.619,9.228-8.286,12.267-14.003s4.56-12.482,4.56-20.299
		c0-9.695-2.353-17.98-7.056-24.854c-4.704-6.875-11.832-11.687-21.383-14.437c6.946-3.329,12.192-7.598,15.737-12.808
		c3.547-5.21,5.318-11.723,5.318-19.538c0-7.236-1.193-13.314-3.582-18.235c-2.388-4.92-5.752-8.864-10.094-11.831
		c-4.342-2.967-9.553-5.102-15.631-6.404c-6.078-1.302-12.809-1.954-20.189-1.954L72.075,50.5L72.075,50.5z M106.158,179.016
		v-42.549h37.121c7.382,0,13.314,1.7,17.802,5.102c4.485,3.4,6.729,9.082,6.729,17.041c0,4.054-0.688,7.382-2.063,9.986
		s-3.221,4.668-5.535,6.188c-2.316,1.52-4.994,2.604-8.033,3.257c-3.039,0.649-6.223,0.978-9.552,0.978h-36.47V179.016z"/>
</g>
</svg>
